<?xml version="1.0" encoding="utf-8"?>
<!-- Generator: Adobe Illustrator 23.1.0, SVG Export Plug-In . SVG Version: 6.00 Build 0)  -->
<svg version="1.1" id="Layer_1" xmlns="http://www.w3.org/2000/svg" xmlns:xlink="http://www.w3.org/1999/xlink" x="0px" y="0px"
	 viewBox="0 0 972 242" style="enable-background:new 0 0 972 242;" xml:space="preserve">
<style type="text/css">
	.st0{fill:#3EC6F1;}
	.st1{fill:#6FCDE4;}
	.st2{fill:#272848;}
</style>
<g>
	<polygon class="st0" points="104.87,-0.08 0,60.45 0,181.55 104.87,242.08 209.73,181.55 209.73,60.5 104.76,121.35 104.87,121.42 
		104.87,158.25 177.03,116.41 177.03,162.65 104.87,204.31 32.7,162.65 32.7,79.35 104.87,37.69 145.05,60.88 177.68,41.96 	"/>
	<polygon class="st1" points="104.64,121.42 104.64,158.38 104.75,158.32 104.87,158.25 104.87,121.42 104.75,121.35 	"/>
	<polygon class="st0" points="104.87,121.42 104.87,158.38 104.76,158.32 104.64,158.25 73.08,139.84 73.08,102.88 104.76,121.35 	
		"/>
	<polygon class="st0" points="104.87,121.42 104.87,158.38 104.76,158.32 104.64,158.25 73.08,139.84 73.08,102.88 104.76,121.35 	
		"/>
	<path class="st2" d="M323.22,61.06c22.06,0,40.29,10.8,49.7,26.87l-23.14,12.97c-5.57-9.27-14.97-14.66-26.55-14.66
		c-18.83,0-31.65,14.81-31.65,34.27s12.82,34.27,31.65,34.27c11.58,0,20.99-5.41,26.55-14.66l23.14,12.98
		c-9.4,16-27.61,26.82-49.7,26.82c-33.18,0.47-58.97-25.77-58.49-59.44C264.26,86.85,290.05,60.61,323.22,61.06"/>
	<path class="st2" d="M443.17,61.06c23.01,0,41.84,10.8,51.24,26.87l-22.85,12.82c-5.57-9.27-15.6-14.81-28.39-14.81
		c-19.75,0-33.18,14.66-33.18,34.57s14.37,34.88,34.72,34.88c11.11,0,20.54-2.47,25.93-6.8v-17.44h-28.1v-21.46h52.79v51.09
		c-4.47,5.41-11.42,10.03-20.83,13.58c-9.4,3.7-19.46,5.57-29.79,5.57c-34.72,0.47-62.2-25.77-61.59-59.44
		C382.66,86.85,408.76,60.61,443.17,61.06"/>
	<path class="st2" d="M676.18,61.06c28.44,0,43.61,12.28,43.61,32.48c0,11.16-6.78,22.29-16.48,25.68
		c11.47,2.27,21.64,13.24,21.64,27.29c0,20.67-16.48,34.41-44.76,34.41h-56.86V61.06H676.18z M675.69,85.14h-24.56v24.56h24.56
		c10.82,0,16.63-4.53,16.63-12.77C692.35,89.34,686.85,85.14,675.69,85.14 M680.22,132.15h-29.09v24.71h28.6
		c11.47,0,16.97-5.01,16.97-12.93C696.7,136.19,691.04,132.15,680.22,132.15"/>
	<path class="st2" d="M799.46,61.06c33.47-0.47,59.46,25.99,58.99,59.93c0.47,33.94-25.52,60.4-58.99,59.93
		c-33.47,0.47-59.46-25.99-58.99-59.93C740,87.07,765.99,60.61,799.46,61.06 M799.46,86.44c-18.99,0-31.92,14.95-31.92,34.57
		c0,19.62,12.93,34.57,31.92,34.57c18.99,0,31.92-14.95,31.92-34.57C831.38,101.39,818.45,86.44,799.46,86.44"/>
	<rect x="522.72" y="109.68" class="st2" width="73.53" height="22.47"/>
	<polygon class="st2" points="972,180.94 932.9,122.81 918.47,101.37 891.35,61.06 858.29,61.06 899.81,122.81 860.71,180.94 
		893.78,180.94 916.36,147.39 938.94,180.94 	"/>
	<rect x="938.6" y="61.06" class="st2" width="33.4" height="33.4"/>
</g>
<g>
	<path class="st2" d="M702.98,242c-2.3,0-4.59-0.07-6.87-0.21c-2.28-0.14-4.65-0.47-7.11-1v-40.65c1.93-0.36,4.05-0.63,6.35-0.82
		c2.3-0.18,4.44-0.27,6.41-0.27c2.66,0,5.11,0.19,7.35,0.57c2.24,0.38,4.16,1.04,5.78,1.97c1.61,0.93,2.87,2.15,3.78,3.66
		c0.91,1.51,1.36,3.38,1.36,5.6c0,3.35-1.61,5.99-4.84,7.92c2.66,1.01,4.48,2.38,5.44,4.11c0.97,1.73,1.45,3.69,1.45,5.87
		c0,4.4-1.6,7.7-4.81,9.92C714.07,240.89,709.31,242,702.98,242z M698.2,215.99h4.6c2.9,0,4.98-0.37,6.23-1.12
		c1.25-0.74,1.88-1.95,1.88-3.6c0-1.69-0.65-2.88-1.94-3.57c-1.29-0.69-3.19-1.03-5.69-1.03c-0.81,0-1.67,0.01-2.6,0.03
		c-0.93,0.02-1.75,0.07-2.48,0.15V215.99z M698.2,223.19v10.83c0.69,0.08,1.43,0.14,2.24,0.18c0.81,0.04,1.69,0.06,2.66,0.06
		c2.82,0,5.1-0.4,6.84-1.21c1.73-0.81,2.6-2.3,2.6-4.48c0-1.94-0.73-3.32-2.18-4.14c-1.45-0.83-3.53-1.24-6.23-1.24H698.2z"/>
	<path class="st2" d="M769.77,241.45v-41.92h28.31v7.92H779.2v8.23h16.75v7.74H779.2v10.1h20.26v7.92H769.77z"/>
	<path class="st2" d="M881.86,199.54v8.05h-12.64v33.87h-9.44v-33.87h-12.64v-8.05H881.86z"/>
	<path class="st2" d="M961.9,241.45c-0.47-1.46-0.97-2.95-1.51-4.49c-0.54-1.53-1.07-3.06-1.6-4.59h-16.37
		c-0.53,1.53-1.06,3.06-1.59,4.6c-0.53,1.54-1.03,3.03-1.49,4.48h-9.8c1.58-4.52,3.07-8.69,4.49-12.52
		c1.42-3.83,2.8-7.44,4.16-10.83c1.36-3.39,2.69-6.6,4-9.65c1.31-3.04,2.68-6.02,4.1-8.92h8.94c1.38,2.9,2.73,5.88,4.07,8.92
		c1.34,3.04,2.68,6.26,4.04,9.65c1.36,3.39,2.74,7,4.16,10.83c1.42,3.83,2.92,8,4.5,12.52H961.9z M950.56,209.03
		c-0.21,0.61-0.52,1.44-0.92,2.48c-0.4,1.05-0.87,2.26-1.38,3.63c-0.52,1.37-1.1,2.89-1.74,4.54c-0.64,1.65-1.29,3.38-1.95,5.19
		h11.99c-0.64-1.82-1.26-3.55-1.86-5.21c-0.6-1.66-1.17-3.17-1.71-4.55s-1.02-2.58-1.42-3.63
		C951.14,210.45,950.81,209.63,950.56,209.03z"/>
</g>
</svg>
